<svg width="1896" height="1323" viewBox="0 0 1896 1323" fill="none" xmlns="http://www.w3.org/2000/svg">
<path opacity="0.05" d="M1549.5 661.44C1549.5 1026.21 1270.32 1321.86 926 1321.86C581.677 1321.86 302.5 1026.21 302.5 661.44C302.5 296.673 581.677 1.02087 926 1.02087C1270.32 1.02087 1549.5 296.673 1549.5 661.44Z" stroke="#CAC6DD"/>
<path opacity="0.1" d="M1452.5 661.44C1452.5 969.466 1216.75 1219.12 926 1219.12C635.249 1219.12 399.5 969.466 399.5 661.44C399.5 353.415 635.249 103.76 926 103.76C1216.75 103.76 1452.5 353.415 1452.5 661.44Z" stroke="#CAC6DD"/>
<path opacity="0.1" d="M1336.5 661.44C1336.5 901.611 1152.69 1096.26 926 1096.26C699.314 1096.26 515.5 901.611 515.5 661.44C515.5 421.27 699.314 226.623 926 226.623C1152.69 226.623 1336.5 421.27 1336.5 661.44Z" stroke="#CAC6DD"/>
<path opacity="0.1" d="M1214.5 661.44C1214.5 830.245 1085.31 967.039 926 967.039C766.693 967.039 637.5 830.245 637.5 661.44C637.5 492.635 766.693 355.841 926 355.841C1085.31 355.841 1214.5 492.635 1214.5 661.44Z" stroke="#CAC6DD"/>
<path opacity="0.1" d="M1110.5 661.44C1110.5 769.409 1027.87 856.886 926 856.886C824.13 856.886 741.5 769.409 741.5 661.44C741.5 553.471 824.13 465.995 926 465.995C1027.87 465.995 1110.5 553.471 1110.5 661.44Z" stroke="#CAC6DD"/>
</svg>
