<svg width="9" height="15" viewBox="0 0 9 15" fill="none" xmlns="http://www.w3.org/2000/svg">
<path d="M1.29259 14.707C1.10512 14.5194 0.999807 14.2651 0.999807 14C0.999807 13.7348 1.10512 13.4805 1.29259 13.293L6.58559 7.99997L1.29259 2.70697C1.19708 2.61472 1.1209 2.50438 1.06849 2.38237C1.01608 2.26037 0.988496 2.12915 0.987342 1.99637C0.986188 1.86359 1.01149 1.73191 1.06177 1.60902C1.11205 1.48612 1.18631 1.37447 1.2802 1.28057C1.37409 1.18668 1.48574 1.11243 1.60864 1.06215C1.73154 1.01187 1.86321 0.986565 1.99599 0.987719C2.12877 0.988872 2.25999 1.01646 2.382 1.06887C2.504 1.12128 2.61435 1.19746 2.70659 1.29297L8.70659 7.29297C8.89406 7.4805 8.99938 7.7348 8.99938 7.99997C8.99938 8.26513 8.89406 8.51944 8.70659 8.70697L2.70659 14.707C2.51907 14.8944 2.26476 14.9998 1.99959 14.9998C1.73443 14.9998 1.48012 14.8944 1.29259 14.707Z" fill="#FFFEFF"/>
</svg>
