<svg width="24" height="24" viewBox="0 0 24 24" fill="none" xmlns="http://www.w3.org/2000/svg">
<path d="M7.13421 11.9973C7.13668 12.1644 7.17351 12.3292 7.24241 12.4815C7.31131 12.6338 7.41081 12.7702 7.53471 12.8823L14.9417 20.1198C15.0448 20.2243 15.168 20.3067 15.3039 20.3622C15.4398 20.4176 15.5855 20.4449 15.7322 20.4423C15.8807 20.4439 16.028 20.416 16.1656 20.3603C16.3032 20.3045 16.4284 20.222 16.5339 20.1175C16.6394 20.013 16.7231 19.8886 16.7801 19.7515C16.8371 19.6144 16.8664 19.4673 16.8662 19.3188C16.8662 19.0143 16.7417 18.7188 16.5227 18.4998L9.84771 12.0063L16.5227 5.49485C16.739 5.2767 16.8622 4.98305 16.8662 4.67585C16.8666 4.52723 16.8375 4.38002 16.7805 4.24276C16.7236 4.1055 16.6399 3.98092 16.5344 3.87625C16.4289 3.77159 16.3037 3.68893 16.166 3.63306C16.0282 3.5772 15.8808 3.54926 15.7322 3.55085C15.4172 3.55085 15.1517 3.66635 14.9417 3.87485L7.53471 11.1213C7.26771 11.3778 7.13421 11.6643 7.13421 11.9973Z" fill="#98A2B3"/>
</svg>
