<svg width="24" height="24" viewBox="0 0 24 24" fill="none" xmlns="http://www.w3.org/2000/svg">
<path d="M11.9973 16.8658C12.1644 16.8633 12.3292 16.8265 12.4815 16.7576C12.6338 16.6887 12.7702 16.5892 12.8823 16.4653L20.1198 9.05829C20.2243 8.9552 20.3067 8.83199 20.3622 8.69611C20.4176 8.56024 20.4449 8.41452 20.4423 8.26779C20.4439 8.11932 20.416 7.972 20.3603 7.83439C20.3045 7.69677 20.222 7.5716 20.1175 7.46612C20.013 7.36064 19.8886 7.27695 19.7515 7.2199C19.6144 7.16285 19.4673 7.13359 19.3188 7.13379C19.0143 7.13379 18.7188 7.25829 18.4998 7.47729L12.0063 14.1523L5.49485 7.47729C5.2767 7.26095 4.98305 7.13779 4.67585 7.13379C4.52723 7.13339 4.38002 7.16251 4.24276 7.21947C4.1055 7.27642 3.98092 7.36008 3.87625 7.46558C3.77159 7.57108 3.68893 7.69633 3.63306 7.83404C3.5772 7.97175 3.54926 8.11919 3.55085 8.26779C3.55085 8.58279 3.66635 8.84829 3.87485 9.05829L11.1213 16.4653C11.3778 16.7323 11.6643 16.8658 11.9973 16.8658Z" fill="#98A2B3"/>
</svg>
