<svg width="40" height="536" viewBox="0 0 40 536" fill="none" xmlns="http://www.w3.org/2000/svg">
<g filter="url(#filter0_f_47_4224)">
<line y1="-1.2" x2="494.259" y2="-1.2" transform="matrix(0 -1 -1 0 20 528)" stroke="#CF6485" stroke-width="2.4"/>
</g>
<g filter="url(#filter1_i_47_4224)">
<line y1="-1.2" x2="493" y2="-1.2" transform="matrix(0 -1 -1 0 20 526.741)" stroke="#CF6485" stroke-width="2.4"/>
</g>
<circle cx="20" cy="20" r="20" fill="url(#paint0_linear_47_4224)"/>
<path d="M26 20.5C26 20.5 21.5811 26.5 20 26.5C18.4188 26.5 14 20.5 14 20.5" stroke="white" stroke-width="2" stroke-linecap="round" stroke-linejoin="round"/>
<path d="M26 13.5001C26 13.5001 21.5811 19.5 20 19.5C18.4188 19.5 14 13.5 14 13.5" stroke="white" stroke-width="2" stroke-linecap="round" stroke-linejoin="round"/>
<defs>
<filter id="filter0_f_47_4224" x="12" y="25.7407" width="18.3999" height="510.259" filterUnits="userSpaceOnUse" color-interpolation-filters="sRGB">
<feFlood flood-opacity="0" result="BackgroundImageFix"/>
<feBlend mode="normal" in="SourceGraphic" in2="BackgroundImageFix" result="shape"/>
<feGaussianBlur stdDeviation="4" result="effect1_foregroundBlur_47_4224"/>
</filter>
<filter id="filter1_i_47_4224" x="20" y="33.7407" width="2.3999" height="497" filterUnits="userSpaceOnUse" color-interpolation-filters="sRGB">
<feFlood flood-opacity="0" result="BackgroundImageFix"/>
<feBlend mode="normal" in="SourceGraphic" in2="BackgroundImageFix" result="shape"/>
<feColorMatrix in="SourceAlpha" type="matrix" values="0 0 0 0 0 0 0 0 0 0 0 0 0 0 0 0 0 0 127 0" result="hardAlpha"/>
<feOffset dy="4"/>
<feGaussianBlur stdDeviation="5"/>
<feComposite in2="hardAlpha" operator="arithmetic" k2="-1" k3="1"/>
<feColorMatrix type="matrix" values="0 0 0 0 0 0 0 0 0 0 0 0 0 0 0 0 0 0 0.25 0"/>
<feBlend mode="normal" in2="shape" result="effect1_innerShadow_47_4224"/>
</filter>
<linearGradient id="paint0_linear_47_4224" x1="1.91205" y1="9.02439" x2="38.8761" y2="10.1122" gradientUnits="userSpaceOnUse">
<stop stop-color="#0864B9"/>
<stop offset="0.411874" stop-color="#D25A98"/>
<stop offset="1" stop-color="#C58544"/>
</linearGradient>
</defs>
</svg>
