<svg width="150" height="30" viewBox="0 0 150 30" fill="none" xmlns="http://www.w3.org/2000/svg">
<path d="M0.5 30V0H10.6539V3.13953H4.84213V26.8605H10.6539V30H0.5Z" fill="url(#paint0_linear_1_910)"/>
<path d="M17.3461 30V26.8605H23.1579V3.13953H17.3461V0H27.5V30H17.3461Z" fill="url(#paint1_linear_1_910)"/>
<path d="M37.036 24V8.352H40.564V14.4H44.836V8.352H48.364V24H44.836V17.472H40.564V24H37.036ZM54.9966 24.288C54.1966 24.288 53.5006 24.128 52.9086 23.808C52.3326 23.488 51.8846 23.056 51.5646 22.512C51.2446 21.968 51.0846 21.36 51.0846 20.688C51.0846 19.36 51.6846 18.344 52.8846 17.64C54.1006 16.936 56.1166 16.504 58.9326 16.344C58.8846 15.976 58.7646 15.664 58.5726 15.408C58.3806 15.152 58.1006 14.96 57.7326 14.832C57.3806 14.688 56.9326 14.616 56.3886 14.616C56.0046 14.616 55.6206 14.664 55.2366 14.76C54.8526 14.84 54.4526 14.968 54.0366 15.144C53.6366 15.304 53.2126 15.496 52.7646 15.72L51.5166 13.416C52.0606 13.096 52.6286 12.816 53.2206 12.576C53.8286 12.336 54.4526 12.152 55.0926 12.024C55.7486 11.88 56.4126 11.808 57.0846 11.808C58.2046 11.808 59.1646 12.008 59.9646 12.408C60.7646 12.792 61.3806 13.384 61.8126 14.184C62.2446 14.968 62.4606 15.968 62.4606 17.184V24H59.5806L59.3166 22.656H59.2206C58.6286 23.104 57.9726 23.488 57.2526 23.808C56.5326 24.128 55.7806 24.288 54.9966 24.288ZM56.1246 21.552C56.6526 21.552 57.1486 21.448 57.6126 21.24C58.0766 21.016 58.5166 20.744 58.9326 20.424V18.456C57.7646 18.52 56.8526 18.64 56.1966 18.816C55.5566 18.992 55.1086 19.216 54.8526 19.488C54.5966 19.76 54.4686 20.072 54.4686 20.424C54.4686 20.664 54.5326 20.872 54.6606 21.048C54.8046 21.224 54.9966 21.352 55.2366 21.432C55.4926 21.512 55.7886 21.552 56.1246 21.552ZM66.5252 24V12.096H69.4052L69.6932 14.688H69.7652C70.3572 13.712 71.0692 12.992 71.9012 12.528C72.7492 12.048 73.6452 11.808 74.5892 11.808C75.1172 11.808 75.5412 11.848 75.8612 11.928C76.1972 12.008 76.5412 12.128 76.8932 12.288L76.1732 15.24C75.8052 15.128 75.4692 15.048 75.1652 15C74.8772 14.936 74.5092 14.904 74.0612 14.904C73.3252 14.904 72.5972 15.12 71.8772 15.552C71.1732 15.984 70.5652 16.736 70.0532 17.808V24H66.5252ZM84.0059 24.288C82.5019 24.288 81.2859 23.736 80.3579 22.632C79.4459 21.512 78.9899 19.984 78.9899 18.048C78.9899 16.752 79.2299 15.64 79.7099 14.712C80.2059 13.784 80.8459 13.072 81.6299 12.576C82.4139 12.064 83.2299 11.808 84.0779 11.808C84.7339 11.808 85.3019 11.92 85.7819 12.144C86.2619 12.368 86.6939 12.68 87.0779 13.08H87.1739L87.0059 11.232V7.176H90.5339V24H87.6539L87.3899 22.776H87.3179C86.8859 23.208 86.3739 23.568 85.7819 23.856C85.2059 24.144 84.6139 24.288 84.0059 24.288ZM84.9179 21.408C85.3179 21.408 85.6859 21.328 86.0219 21.168C86.3739 20.992 86.7019 20.704 87.0059 20.304V15.48C86.6859 15.192 86.3579 14.992 86.0219 14.88C85.7019 14.752 85.3659 14.688 85.0139 14.688C84.5819 14.688 84.1819 14.808 83.8139 15.048C83.4459 15.288 83.1499 15.656 82.9259 16.152C82.7179 16.632 82.6139 17.248 82.6139 18C82.6139 19.168 82.8139 20.032 83.2139 20.592C83.6139 21.136 84.1819 21.408 84.9179 21.408ZM100.214 24.288C98.9665 24.288 97.8385 24.048 96.8305 23.568C95.8385 23.072 95.0465 22.36 94.4545 21.432C93.8785 20.488 93.5905 19.36 93.5905 18.048C93.5905 16.736 93.9105 15.616 94.5505 14.688C95.1905 13.744 96.0305 13.032 97.0705 12.552C98.1265 12.056 99.2625 11.808 100.478 11.808C101.422 11.808 102.278 11.96 103.046 12.264C103.814 12.552 104.446 12.936 104.942 13.416L103.31 15.6C102.846 15.28 102.398 15.048 101.966 14.904C101.55 14.744 101.118 14.664 100.67 14.664C99.9985 14.664 99.3985 14.8 98.8705 15.072C98.3425 15.344 97.9345 15.736 97.6465 16.248C97.3585 16.76 97.2145 17.36 97.2145 18.048C97.2145 18.736 97.3505 19.336 97.6225 19.848C97.9105 20.36 98.3025 20.752 98.7985 21.024C99.3105 21.296 99.8945 21.432 100.55 21.432C101.174 21.432 101.742 21.32 102.254 21.096C102.782 20.872 103.262 20.608 103.694 20.304L105.11 22.536C104.406 23.128 103.614 23.568 102.734 23.856C101.87 24.144 101.03 24.288 100.214 24.288ZM113.303 24.288C112.263 24.288 111.279 24.048 110.351 23.568C109.423 23.072 108.671 22.36 108.095 21.432C107.519 20.488 107.231 19.36 107.231 18.048C107.231 16.736 107.519 15.616 108.095 14.688C108.671 13.744 109.423 13.032 110.351 12.552C111.279 12.056 112.263 11.808 113.303 11.808C114.343 11.808 115.327 12.056 116.255 12.552C117.183 13.032 117.935 13.744 118.511 14.688C119.087 15.616 119.375 16.736 119.375 18.048C119.375 19.36 119.087 20.488 118.511 21.432C117.935 22.36 117.183 23.072 116.255 23.568C115.327 24.048 114.343 24.288 113.303 24.288ZM113.303 21.432C113.847 21.432 114.295 21.296 114.647 21.024C115.015 20.752 115.287 20.36 115.463 19.848C115.655 19.336 115.751 18.736 115.751 18.048C115.751 17.36 115.655 16.76 115.463 16.248C115.287 15.736 115.015 15.344 114.647 15.072C114.295 14.8 113.847 14.664 113.303 14.664C112.759 14.664 112.303 14.8 111.935 15.072C111.583 15.344 111.311 15.736 111.119 16.248C110.943 16.76 110.855 17.36 110.855 18.048C110.855 18.736 110.943 19.336 111.119 19.848C111.311 20.36 111.583 20.752 111.935 21.024C112.303 21.296 112.759 21.432 113.303 21.432ZM126.368 24.288C124.864 24.288 123.648 23.736 122.72 22.632C121.808 21.512 121.352 19.984 121.352 18.048C121.352 16.752 121.592 15.64 122.072 14.712C122.568 13.784 123.208 13.072 123.992 12.576C124.776 12.064 125.592 11.808 126.44 11.808C127.096 11.808 127.664 11.92 128.144 12.144C128.624 12.368 129.056 12.68 129.44 13.08H129.536L129.368 11.232V7.176H132.896V24H130.016L129.752 22.776H129.68C129.248 23.208 128.736 23.568 128.144 23.856C127.568 24.144 126.976 24.288 126.368 24.288ZM127.28 21.408C127.68 21.408 128.048 21.328 128.384 21.168C128.736 20.992 129.064 20.704 129.368 20.304V15.48C129.048 15.192 128.72 14.992 128.384 14.88C128.064 14.752 127.728 14.688 127.376 14.688C126.944 14.688 126.544 14.808 126.176 15.048C125.808 15.288 125.512 15.656 125.288 16.152C125.08 16.632 124.976 17.248 124.976 18C124.976 19.168 125.176 20.032 125.576 20.592C125.976 21.136 126.544 21.408 127.28 21.408ZM142.264 24.288C141.032 24.288 139.912 24.048 138.904 23.568C137.912 23.072 137.12 22.36 136.528 21.432C135.952 20.488 135.664 19.36 135.664 18.048C135.664 16.752 135.96 15.64 136.552 14.712C137.144 13.768 137.912 13.048 138.856 12.552C139.8 12.056 140.8 11.808 141.856 11.808C143.088 11.808 144.12 12.064 144.952 12.576C145.784 13.072 146.408 13.752 146.824 14.616C147.256 15.464 147.472 16.432 147.472 17.52C147.472 17.84 147.448 18.152 147.4 18.456C147.368 18.744 147.336 18.96 147.304 19.104H138.28V16.728H144.928L144.376 17.4C144.376 16.44 144.168 15.72 143.752 15.24C143.352 14.744 142.76 14.496 141.976 14.496C141.4 14.496 140.896 14.624 140.464 14.88C140.032 15.136 139.696 15.528 139.456 16.056C139.216 16.584 139.096 17.248 139.096 18.048C139.096 18.864 139.24 19.536 139.528 20.064C139.816 20.576 140.232 20.96 140.776 21.216C141.32 21.472 141.976 21.6 142.744 21.6C143.288 21.6 143.8 21.528 144.28 21.384C144.776 21.24 145.288 21.032 145.816 20.76L146.992 22.896C146.304 23.328 145.544 23.672 144.712 23.928C143.88 24.168 143.064 24.288 142.264 24.288Z" fill="#CAD1E9"/>
<defs>
<linearGradient id="paint0_linear_1_910" x1="14" y1="0" x2="14" y2="30" gradientUnits="userSpaceOnUse">
<stop stop-color="#B67EFD"/>
<stop offset="1" stop-color="#FFAC8E"/>
</linearGradient>
<linearGradient id="paint1_linear_1_910" x1="14" y1="0" x2="14" y2="30" gradientUnits="userSpaceOnUse">
<stop stop-color="#B67EFD"/>
<stop offset="1" stop-color="#FFAC8E"/>
</linearGradient>
</defs>
</svg>
