<svg width="208" height="40" viewBox="0 0 208 40" fill="none" xmlns="http://www.w3.org/2000/svg">
<path d="M0 39.5301V0.469727H13.2205V4.55744H5.65351V35.4424H13.2205V39.5301H0Z" fill="url(#paint0_linear_38_754)"/>
<path d="M21.9338 39.5301V35.4424H29.5009V4.55744H21.9338V0.469727H35.1544V39.5301H21.9338Z" fill="url(#paint1_linear_38_754)"/>
<path d="M63.2983 31V7.64H68.5463V31H63.2983ZM48.1943 31V7.64H53.4423V31H48.1943ZM52.5143 21.56V16.952H64.2263V21.56H52.5143ZM83.7405 31V25.816H82.8765V20.184C82.8765 19.288 82.6632 18.616 82.2365 18.168C81.8099 17.72 81.1272 17.496 80.1885 17.496C79.7192 17.496 79.1005 17.5067 78.3325 17.528C77.5645 17.5493 76.7752 17.5813 75.9645 17.624C75.1539 17.6667 74.4179 17.7093 73.7565 17.752V13.432C74.2472 13.3893 74.8232 13.3467 75.4845 13.304C76.1459 13.2613 76.8285 13.2293 77.5325 13.208C78.2365 13.1867 78.8979 13.176 79.5165 13.176C81.3085 13.176 82.8125 13.432 84.0285 13.944C85.2659 14.456 86.2045 15.2347 86.8445 16.28C87.4845 17.304 87.8045 18.6267 87.8045 20.248V31H83.7405ZM78.1405 31.448C76.8819 31.448 75.7725 31.224 74.8125 30.776C73.8739 30.328 73.1379 29.688 72.6045 28.856C72.0712 28.0027 71.8045 26.9893 71.8045 25.816C71.8045 24.536 72.1352 23.4907 72.7965 22.68C73.4579 21.848 74.3859 21.24 75.5805 20.856C76.7752 20.4507 78.1512 20.248 79.7085 20.248H83.4525V23.096H79.6765C78.7805 23.096 78.0872 23.32 77.5965 23.768C77.1272 24.1947 76.8925 24.7813 76.8925 25.528C76.8925 26.232 77.1272 26.808 77.5965 27.256C78.0872 27.6827 78.7805 27.896 79.6765 27.896C80.2525 27.896 80.7645 27.8 81.2125 27.608C81.6819 27.3947 82.0659 27.0427 82.3645 26.552C82.6632 26.0613 82.8339 25.3787 82.8765 24.504L84.0925 25.784C83.9859 27 83.6872 28.024 83.1965 28.856C82.7272 29.688 82.0659 30.328 81.2125 30.776C80.3805 31.224 79.3565 31.448 78.1405 31.448ZM91.797 31V13.464H95.861V20.984H95.765C95.765 18.5093 96.2876 16.6 97.333 15.256C98.3996 13.912 99.9356 13.24 101.941 13.24H102.613V17.656H101.333C99.925 17.656 98.837 18.04 98.069 18.808C97.301 19.5547 96.917 20.6427 96.917 22.072V31H91.797ZM112.052 31.576C110.815 31.576 109.684 31.352 108.66 30.904C107.658 30.456 106.783 29.8373 106.036 29.048C105.29 28.2373 104.714 27.288 104.308 26.2C103.924 25.112 103.732 23.9387 103.732 22.68V21.944C103.732 20.6853 103.914 19.512 104.276 18.424C104.66 17.336 105.204 16.3867 105.908 15.576C106.634 14.744 107.498 14.104 108.5 13.656C109.503 13.1867 110.623 12.952 111.86 12.952C113.268 12.952 114.484 13.2613 115.508 13.88C116.532 14.4773 117.332 15.3733 117.908 16.568C118.484 17.7413 118.804 19.192 118.868 20.92L117.524 19.672V7.64H122.676V31H118.612V23.736H119.316C119.252 25.4 118.9 26.8187 118.26 27.992C117.642 29.1653 116.799 30.0613 115.732 30.68C114.666 31.2773 113.439 31.576 112.052 31.576ZM113.332 27.288C114.122 27.288 114.836 27.1173 115.476 26.776C116.138 26.4133 116.66 25.8907 117.044 25.208C117.45 24.5253 117.652 23.704 117.652 22.744V21.56C117.652 20.6213 117.45 19.832 117.044 19.192C116.639 18.552 116.106 18.0613 115.444 17.72C114.783 17.3787 114.068 17.208 113.3 17.208C112.447 17.208 111.679 17.432 110.996 17.88C110.335 18.3067 109.812 18.904 109.428 19.672C109.044 20.4187 108.852 21.2933 108.852 22.296C108.852 23.32 109.044 24.2053 109.428 24.952C109.812 25.6987 110.346 26.2747 111.028 26.68C111.711 27.0853 112.479 27.288 113.332 27.288ZM134.841 31.608C133.326 31.608 132.004 31.3627 130.873 30.872C129.764 30.36 128.836 29.6773 128.089 28.824C127.342 27.9707 126.788 27.0107 126.425 25.944C126.062 24.856 125.881 23.736 125.881 22.584V21.976C125.881 20.7813 126.073 19.64 126.457 18.552C126.841 17.4427 127.406 16.4613 128.153 15.608C128.9 14.7547 129.828 14.0827 130.937 13.592C132.068 13.1013 133.358 12.856 134.809 12.856C136.388 12.856 137.785 13.1653 139.001 13.784C140.217 14.3813 141.188 15.224 141.913 16.312C142.638 17.4 143.044 18.648 143.129 20.056H138.105C138.02 19.2667 137.7 18.6053 137.145 18.072C136.612 17.5173 135.833 17.24 134.809 17.24C133.956 17.24 133.241 17.4533 132.665 17.88C132.11 18.3067 131.694 18.8933 131.417 19.64C131.14 20.3867 131.001 21.272 131.001 22.296C131.001 23.2347 131.129 24.088 131.385 24.856C131.641 25.6027 132.046 26.1893 132.601 26.616C133.177 27.0213 133.924 27.224 134.841 27.224C135.524 27.224 136.1 27.1067 136.569 26.872C137.06 26.616 137.444 26.2747 137.721 25.848C138.02 25.4 138.201 24.888 138.265 24.312H143.257C143.193 25.7627 142.788 27.0427 142.041 28.152C141.294 29.24 140.302 30.0933 139.065 30.712C137.828 31.3093 136.42 31.608 134.841 31.608ZM154.724 31.608C153.188 31.608 151.823 31.3733 150.628 30.904C149.433 30.4133 148.42 29.752 147.588 28.92C146.777 28.088 146.159 27.1387 145.732 26.072C145.305 24.984 145.092 23.8427 145.092 22.648V21.912C145.092 20.696 145.305 19.544 145.732 18.456C146.18 17.3467 146.82 16.376 147.652 15.544C148.505 14.712 149.529 14.0613 150.724 13.592C151.919 13.1013 153.252 12.856 154.724 12.856C156.239 12.856 157.583 13.1013 158.756 13.592C159.951 14.0613 160.964 14.712 161.796 15.544C162.628 16.376 163.268 17.3467 163.716 18.456C164.164 19.544 164.388 20.696 164.388 21.912V22.648C164.388 23.8427 164.175 24.984 163.748 26.072C163.321 27.1387 162.692 28.088 161.86 28.92C161.049 29.752 160.047 30.4133 158.852 30.904C157.657 31.3733 156.281 31.608 154.724 31.608ZM154.724 27.288C155.727 27.288 156.559 27.0747 157.22 26.648C157.881 26.2213 158.383 25.624 158.724 24.856C159.087 24.088 159.268 23.2347 159.268 22.296C159.268 21.2933 159.087 20.4187 158.724 19.672C158.361 18.904 157.839 18.296 157.156 17.848C156.495 17.4 155.684 17.176 154.724 17.176C153.785 17.176 152.975 17.4 152.292 17.848C151.609 18.296 151.087 18.904 150.724 19.672C150.383 20.4187 150.212 21.2933 150.212 22.296C150.212 23.2347 150.383 24.088 150.724 24.856C151.065 25.624 151.577 26.2213 152.26 26.648C152.943 27.0747 153.764 27.288 154.724 27.288ZM174.842 31.576C173.604 31.576 172.474 31.352 171.45 30.904C170.447 30.456 169.572 29.8373 168.826 29.048C168.079 28.2373 167.503 27.288 167.098 26.2C166.714 25.112 166.522 23.9387 166.522 22.68V21.944C166.522 20.6853 166.703 19.512 167.066 18.424C167.45 17.336 167.994 16.3867 168.698 15.576C169.423 14.744 170.287 14.104 171.29 13.656C172.292 13.1867 173.412 12.952 174.65 12.952C176.058 12.952 177.274 13.2613 178.298 13.88C179.322 14.4773 180.122 15.3733 180.698 16.568C181.274 17.7413 181.594 19.192 181.658 20.92L180.314 19.672V7.64H185.466V31H181.402V23.736H182.106C182.042 25.4 181.69 26.8187 181.05 27.992C180.431 29.1653 179.588 30.0613 178.522 30.68C177.455 31.2773 176.228 31.576 174.842 31.576ZM176.122 27.288C176.911 27.288 177.626 27.1173 178.266 26.776C178.927 26.4133 179.45 25.8907 179.834 25.208C180.239 24.5253 180.442 23.704 180.442 22.744V21.56C180.442 20.6213 180.239 19.832 179.834 19.192C179.428 18.552 178.895 18.0613 178.234 17.72C177.572 17.3787 176.858 17.208 176.09 17.208C175.236 17.208 174.468 17.432 173.786 17.88C173.124 18.3067 172.602 18.904 172.218 19.672C171.834 20.4187 171.642 21.2933 171.642 22.296C171.642 23.32 171.834 24.2053 172.218 24.952C172.602 25.6987 173.135 26.2747 173.818 26.68C174.5 27.0853 175.268 27.288 176.122 27.288ZM197.79 31.608C196.297 31.608 194.974 31.352 193.822 30.84C192.691 30.328 191.742 29.6453 190.974 28.792C190.227 27.9173 189.651 26.9467 189.246 25.88C188.862 24.792 188.67 23.6827 188.67 22.552V21.912C188.67 20.7387 188.862 19.6187 189.246 18.552C189.651 17.464 190.227 16.4933 190.974 15.64C191.721 14.7867 192.649 14.1147 193.758 13.624C194.889 13.112 196.169 12.856 197.598 12.856C199.475 12.856 201.054 13.2827 202.334 14.136C203.635 14.968 204.627 16.0667 205.31 17.432C205.993 18.776 206.334 20.248 206.334 21.848V23.576H190.814V20.664H203.23L201.566 22.008C201.566 20.9627 201.417 20.0667 201.118 19.32C200.819 18.5733 200.371 18.008 199.774 17.624C199.198 17.2187 198.473 17.016 197.598 17.016C196.702 17.016 195.945 17.2187 195.326 17.624C194.707 18.0293 194.238 18.6267 193.918 19.416C193.598 20.184 193.438 21.1333 193.438 22.264C193.438 23.3093 193.587 24.2267 193.886 25.016C194.185 25.784 194.654 26.3813 195.294 26.808C195.934 27.2347 196.766 27.448 197.79 27.448C198.729 27.448 199.497 27.2667 200.094 26.904C200.691 26.5413 201.097 26.0933 201.31 25.56H206.014C205.758 26.7333 205.257 27.7787 204.51 28.696C203.763 29.6133 202.825 30.328 201.694 30.84C200.563 31.352 199.262 31.608 197.79 31.608Z" fill="#0E0B29"/>
<defs>
<linearGradient id="paint0_linear_38_754" x1="1.68041" y1="9.28215" x2="46.1428" y2="46.0111" gradientUnits="userSpaceOnUse">
<stop stop-color="#0864B9"/>
<stop offset="0.411874" stop-color="#D25A98"/>
<stop offset="1" stop-color="#C58544"/>
</linearGradient>
<linearGradient id="paint1_linear_38_754" x1="1.68041" y1="9.28215" x2="46.1428" y2="46.0111" gradientUnits="userSpaceOnUse">
<stop stop-color="#0864B9"/>
<stop offset="0.411874" stop-color="#D25A98"/>
<stop offset="1" stop-color="#C58544"/>
</linearGradient>
</defs>
</svg>
