<svg width="20" height="20" viewBox="0 0 20 20" fill="none" xmlns="http://www.w3.org/2000/svg">
<g clip-path="url(#clip0_43_800)">
<path fill-rule="evenodd" clip-rule="evenodd" d="M10 1.75C5.44365 1.75 1.75 5.44365 1.75 10C1.75 14.5563 5.44365 18.25 10 18.25C14.5563 18.25 18.25 14.5563 18.25 10C18.25 5.44365 14.5563 1.75 10 1.75ZM3.25 10C3.25 6.27208 6.27208 3.25 10 3.25C13.7279 3.25 16.75 6.27208 16.75 10C16.75 13.7279 13.7279 16.75 10 16.75C6.27208 16.75 3.25 13.7279 3.25 10Z" fill="#344054"/>
<path fill-rule="evenodd" clip-rule="evenodd" d="M10 5.66675C9.44772 5.66675 9 6.11446 9 6.66675C9 7.21903 9.44772 7.66675 10 7.66675H10.0083C10.5606 7.66675 11.0083 7.21903 11.0083 6.66675C11.0083 6.11446 10.5606 5.66675 10.0083 5.66675H10Z" fill="#344054"/>
<path fill-rule="evenodd" clip-rule="evenodd" d="M8.66699 10C8.66699 9.72386 8.89085 9.5 9.16699 9.5H10.0003C10.2765 9.5 10.5003 9.72386 10.5003 10V12.8333H10.8337C11.1098 12.8333 11.3337 13.0572 11.3337 13.3333C11.3337 13.6095 11.1098 13.8333 10.8337 13.8333H10.0003C9.72418 13.8333 9.50033 13.6095 9.50033 13.3333V10.5H9.16699C8.89085 10.5 8.66699 10.2761 8.66699 10Z" fill="#344054" stroke="#344054" stroke-width="0.5" stroke-linecap="round" stroke-linejoin="round"/>
</g>
<defs>
<clipPath id="clip0_43_800">
<rect width="20" height="20" fill="white"/>
</clipPath>
</defs>
</svg>
